<?xml version="1.0" encoding="UTF-8"?>
<svg version="1.1" xmlns="http://www.w3.org/2000/svg" width="512" height="512">
<path d="M0 0 C0.91297852 0.16628906 1.82595703 0.33257812 2.76660156 0.50390625 C38.83243889 7.13952879 73.13849549 21.74386543 103 43 C103.64388672 43.45455566 104.28777344 43.90911133 104.95117188 44.37744141 C114.70249752 51.3103961 123.60443293 58.8701426 132.17089844 67.21777344 C133.99177762 68.99198833 135.82753929 70.74981514 137.6640625 72.5078125 C145.00668468 79.6120701 151.5760633 87.02864075 157.67333984 95.22460938 C159.0100347 97.01342885 160.37192442 98.78064432 161.73828125 100.546875 C172.69226818 114.87847034 181.33453857 130.70379681 189 147 C189.50917969 148.07636719 190.01835937 149.15273437 190.54296875 150.26171875 C198.84273851 168.70812392 204.38220076 188.13716039 208 208 C208.16371094 208.83563477 208.32742188 209.67126953 208.49609375 210.53222656 C213.78656862 238.24163521 213.41678597 270.35093304 208 298 C207.83371094 298.91297852 207.66742188 299.82595703 207.49609375 300.76660156 C200.86047121 336.83243889 186.25613457 371.13849549 165 401 C164.54544434 401.64388672 164.09088867 402.28777344 163.62255859 402.95117188 C156.6896039 412.70249752 149.1298574 421.60443293 140.78222656 430.17089844 C139.00801167 431.99177762 137.25018486 433.82753929 135.4921875 435.6640625 C128.3879299 443.00668468 120.97135925 449.5760633 112.77539062 455.67333984 C110.98657115 457.0100347 109.21935568 458.37192442 107.453125 459.73828125 C93.12152966 470.69226818 77.29620319 479.33453857 61 487 C59.92363281 487.50917969 58.84726562 488.01835937 57.73828125 488.54296875 C39.29187608 496.84273851 19.86283961 502.38220076 0 506 C-0.83563477 506.16371094 -1.67126953 506.32742188 -2.53222656 506.49609375 C-30.24163521 511.78656862 -62.35093304 511.41678597 -90 506 C-90.91297852 505.83371094 -91.82595703 505.66742188 -92.76660156 505.49609375 C-128.83243889 498.86047121 -163.13849549 484.25613457 -193 463 C-193.64388672 462.54544434 -194.28777344 462.09088867 -194.95117188 461.62255859 C-204.70249752 454.6896039 -213.60443293 447.1298574 -222.17089844 438.78222656 C-223.99177762 437.00801167 -225.82753929 435.25018486 -227.6640625 433.4921875 C-235.00668468 426.3879299 -241.5760633 418.97135925 -247.67333984 410.77539062 C-249.0100347 408.98657115 -250.37192442 407.21935568 -251.73828125 405.453125 C-262.69226818 391.12152966 -271.33453857 375.29620319 -279 359 C-279.76376953 357.38544922 -279.76376953 357.38544922 -280.54296875 355.73828125 C-288.84273851 337.29187608 -294.38220076 317.86283961 -298 298 C-298.16371094 297.16436523 -298.32742188 296.32873047 -298.49609375 295.46777344 C-303.78656862 267.75836479 -303.41678597 235.64906696 -298 208 C-297.83371094 207.08702148 -297.66742188 206.17404297 -297.49609375 205.23339844 C-290.86047121 169.16756111 -276.25613457 134.86150451 -255 105 C-254.54544434 104.35611328 -254.09088867 103.71222656 -253.62255859 103.04882812 C-246.6896039 93.29750248 -239.1298574 84.39556707 -230.78222656 75.82910156 C-229.00801167 74.00822238 -227.25018486 72.17246071 -225.4921875 70.3359375 C-218.3879299 62.99331532 -210.97135925 56.4239367 -202.77539062 50.32666016 C-200.98657115 48.9899653 -199.21935568 47.62807558 -197.453125 46.26171875 C-183.12152966 35.30773182 -167.29620319 26.66546143 -151 19 C-149.92363281 18.49082031 -148.84726563 17.98164063 -147.73828125 17.45703125 C-129.29187608 9.15726149 -109.86283961 3.61779924 -90 0 C-89.16436523 -0.16371094 -88.32873047 -0.32742188 -87.46777344 -0.49609375 C-59.75836479 -5.78656862 -27.64906696 -5.41678597 0 0 Z M-185 71 C-186.34578125 72.05767578 -186.34578125 72.05767578 -187.71875 73.13671875 C-234.69930871 110.73466588 -266.32971821 165.31488137 -273.39794922 225.38183594 C-279.52305037 285.05217616 -264.74006386 345.67191992 -227 393 C-226.29488281 393.8971875 -225.58976562 394.794375 -224.86328125 395.71875 C-187.26533412 442.69930871 -132.68511863 474.32971821 -72.61816406 481.39794922 C-12.94782384 487.52305037 47.67191992 472.74006386 95 435 C96.34578125 433.94232422 96.34578125 433.94232422 97.71875 432.86328125 C144.69930871 395.26533412 176.32971821 340.68511863 183.39794922 280.61816406 C189.52305037 220.94782384 174.74006386 160.32808008 137 113 C136.29488281 112.1028125 135.58976562 111.205625 134.86328125 110.28125 C97.26533412 63.30069129 42.68511863 31.67028179 -17.38183594 24.60205078 C-77.05217616 18.47694963 -137.67191992 33.25993614 -185 71 Z " fill="currentColor" transform="translate(301,3)"/>
<path d="M0 0 C0.79921875 -0.0515625 1.5984375 -0.103125 2.421875 -0.15625 C9.67408855 1.52658408 15.49915654 8.46367921 20.58398438 13.60693359 C21.26790253 14.29055969 21.95182068 14.97418579 22.65646362 15.67852783 C24.89033951 17.91378442 27.11706904 20.15601551 29.34375 22.3984375 C30.90129487 23.95971698 32.45928521 25.52055217 34.0177002 27.08096313 C38.09913671 31.1700008 42.17452866 35.26501084 46.24865723 39.36132812 C50.41471559 43.54792096 54.58650933 47.7287902 58.7578125 51.91015625 C66.92747292 60.10120446 75.09075398 68.29857868 83.25 76.5 C86.1223499 75.19763749 88.17593321 73.82029499 90.39280701 71.58424377 C90.9884848 70.98842499 91.5841626 70.3926062 92.19789124 69.7787323 C92.83955734 69.12673355 93.48122345 68.4747348 94.14233398 67.80297852 C94.82739014 67.11500183 95.51244629 66.42702515 96.21826172 65.71820068 C97.70406879 64.22478704 99.1875609 62.72906746 100.66900444 61.23132515 C103.01413601 58.86066761 105.36545809 56.4963131 107.71852112 54.13352966 C113.5617808 48.26352443 119.39416357 42.38274924 125.22692871 36.50231934 C130.15555667 31.53423383 135.08825117 26.57025464 140.02644539 21.61167717 C142.34210377 19.28305849 144.65165156 16.94849302 146.96104431 14.61366272 C148.38315605 13.18428462 149.80555008 11.75518729 151.22827148 10.32641602 C152.1877343 9.35145424 152.1877343 9.35145424 153.1665802 8.35679626 C157.6547235 3.86759567 161.5114636 0.07304666 168.1875 0.0625 C172.90774714 0.21022756 175.66964055 1.2776765 179.25 4.5 C181.00296688 7.37341994 181.54506805 9.5847557 181.5625 12.9375 C181.57925781 13.67871094 181.59601563 14.41992188 181.61328125 15.18359375 C180.63331687 21.43218384 175.40205444 25.62023597 171.11645508 29.8605957 C170.39425278 30.58309006 169.67205048 31.30558441 168.92796326 32.04997253 C166.54653056 34.43001511 164.15809843 36.80290058 161.76953125 39.17578125 C160.11428471 40.82729654 158.45948002 42.47925478 156.80509949 44.13163757 C152.45461076 48.4744987 148.09814878 52.81131952 143.74041748 57.14691162 C139.29272422 61.57412775 134.85070378 66.00702756 130.40820312 70.43945312 C121.69434614 79.13187558 112.97416852 87.81792765 104.25 96.5 C108.40871385 101.46366224 112.73927415 106.12016405 117.34106445 110.67285156 C118.36409416 111.69128143 118.36409416 111.69128143 119.40779114 112.73028564 C120.87661255 114.19199773 122.34655963 115.65257939 123.81752968 117.11212921 C126.14398513 119.4210981 128.4667958 121.73367689 130.78862 124.04730225 C137.38615694 130.62045814 143.98939644 137.18786386 150.59692383 143.75097656 C154.64750379 147.77483031 158.69324536 151.80349589 162.73601341 155.83519745 C164.27675831 157.36972531 165.81939919 158.90235192 167.36394691 160.43305206 C169.51580658 162.56577249 171.66150672 164.70451108 173.8059082 166.84472656 C174.44743835 167.47749512 175.08896851 168.11026367 175.74993896 168.76220703 C176.6224807 169.63670502 176.6224807 169.63670502 177.51264954 170.52886963 C178.0201389 171.03321659 178.52762827 171.53756355 179.0504961 172.05719376 C181.75785206 175.31369846 181.58100879 179.1890143 181.53515625 183.2109375 C181.09223476 186.76644424 179.57825076 188.84838108 177.25 191.5 C174.3226251 193.29239692 171.91835074 193.86936239 168.5 194 C167.70078125 194.0515625 166.9015625 194.103125 166.078125 194.15625 C158.82591145 192.47341592 153.00084346 185.53632079 147.91601562 180.39306641 C147.23209747 179.70944031 146.54817932 179.02581421 145.84353638 178.32147217 C143.60966049 176.08621558 141.38293096 173.84398449 139.15625 171.6015625 C137.59870513 170.04028302 136.04071479 168.47944783 134.4822998 166.91903687 C130.40086329 162.8299992 126.32547134 158.73498916 122.25134277 154.63867188 C118.08528441 150.45207904 113.91349067 146.2712098 109.7421875 142.08984375 C101.57252708 133.89879554 93.40924602 125.70142132 85.25 117.5 C82.3776501 118.80236251 80.32406679 120.17970501 78.10719299 122.41575623 C77.5115152 123.01157501 76.9158374 123.6073938 76.30210876 124.2212677 C75.66044266 124.87326645 75.01877655 125.5252652 74.35766602 126.19702148 C73.67260986 126.88499817 72.98755371 127.57297485 72.28173828 128.28179932 C70.79593121 129.77521296 69.3124391 131.27093254 67.83099556 132.76867485 C65.48586399 135.13933239 63.13454191 137.5036869 60.78147888 139.86647034 C54.9382192 145.73647557 49.10583643 151.61725076 43.27307129 157.49768066 C38.34444333 162.46576617 33.41174883 167.42974536 28.47355461 172.38832283 C26.15789623 174.71694151 23.84834844 177.05150698 21.53895569 179.38633728 C20.11684395 180.81571538 18.69444992 182.24481271 17.27172852 183.67358398 C16.3122657 184.64854576 16.3122657 184.64854576 15.3334198 185.64320374 C10.8452765 190.13240433 6.9885364 193.92695334 0.3125 193.9375 C-4.40774714 193.78977244 -7.16964055 192.7223235 -10.75 189.5 C-12.50296688 186.62658006 -13.04506805 184.4152443 -13.0625 181.0625 C-13.07925781 180.32128906 -13.09601563 179.58007812 -13.11328125 178.81640625 C-12.13331687 172.56781616 -6.90205444 168.37976403 -2.61645508 164.1394043 C-1.89425278 163.41690994 -1.17205048 162.69441559 -0.42796326 161.95002747 C1.95346944 159.56998489 4.34190157 157.19709942 6.73046875 154.82421875 C8.38571529 153.17270346 10.04051998 151.52074522 11.69490051 149.86836243 C16.04538924 145.5255013 20.40185122 141.18868048 24.75958252 136.85308838 C29.20727578 132.42587225 33.64929622 127.99297244 38.09179688 123.56054688 C46.80565386 114.86812442 55.52583148 106.18207235 64.25 97.5 C60.09128615 92.53633776 55.76072585 87.87983595 51.15893555 83.32714844 C50.47691574 82.64819519 49.79489594 81.96924194 49.09220886 81.26971436 C47.62338745 79.80800227 46.15344037 78.34742061 44.68247032 76.88787079 C42.35601487 74.5789019 40.0332042 72.26632311 37.71138 69.95269775 C31.11384306 63.37954186 24.51060356 56.81213614 17.90307617 50.24902344 C13.85249621 46.22516969 9.80675464 42.19650411 5.76398659 38.16480255 C4.22324169 36.63027469 2.68060081 35.09764808 1.13605309 33.56694794 C-1.01580658 31.43422751 -3.16150672 29.29548892 -5.3059082 27.15527344 C-5.94743835 26.52250488 -6.58896851 25.88973633 -7.24993896 25.23779297 C-7.83163345 24.65479431 -8.41332794 24.07179565 -9.01264954 23.47113037 C-9.5201389 22.96678341 -10.02762827 22.46243645 -10.5504961 21.94280624 C-13.25785206 18.68630154 -13.08100879 14.8109857 -13.03515625 10.7890625 C-12.59223476 7.23355576 -11.07825076 5.15161892 -8.75 2.5 C-5.8226251 0.70760308 -3.41835074 0.13063761 0 0 Z " fill="currentColor" transform="translate(171.75,157.5)"/>
</svg>